<svg xmlns="http://www.w3.org/2000/svg" viewBox="0 0 847.87 801.59"><defs><style>.cls-1{fill:#17335b;}.cls-2{fill:#d51e3a;}.cls-3{fill:#c7d3df;}</style></defs><g id="Слой_1" data-name="Слой 1"><path class="cls-1" d="M815.7,360.54v58.23s-19.18-5.37-27.87-4.65c-25.31,2.12-24.05,57.83-11.8,95.82,22,68.34,33.76,84.41,30.38,142.65S732.55,793.13,573.87,789.75s-383.63-32.5-464.67-95c182.32,27.85,249.4,33.28,362.11,9.49,114-24,246.47-75.34,264.2-164s14.34-116.93,14.34-126.2S752,360.54,815.7,360.54Z"/><path class="cls-1" d="M728.78,342.69A213.5,213.5,0,0,1,717,423.37c-64.42-7.27-146.84-7.06-235.94,2.35a1296,1296,0,0,0-143.45,23,362.73,362.73,0,0,0,1.09-45.25c-2.3-60-13.67-112.67-32.9-158.69C357.16,231.65,416.9,221,481,214.18c77.46-8.17,149.88-9.39,209.8-4.79C713.32,247.35,726.52,291.57,728.78,342.69Z"/><path class="cls-2" d="M481,425.72c89.1-9.41,171.52-9.62,235.94-2.35C666.7,566.89,464,663.92,211.14,688.87c72.28-64.59,118.17-145.81,126.44-240.13A1296,1296,0,0,1,481,425.72Z"/><path class="cls-3" d="M690.83,209.39c-59.92-4.6-132.34-3.38-209.8,4.79C416.9,221,357.16,231.65,305.77,244.8c-48.22-115.44-145.85-189-273.6-230.22q29.55-2,59.89-2.55C369.84,7.26,602.32,60,690.83,209.39Z"/></g></svg>