<svg width="16" height="14" viewBox="0 0 16 14" fill="none" xmlns="http://www.w3.org/2000/svg">
<path d="M0.421875 2.03125C0.380208 1.98958 0.34375 1.94271 0.3125 1.89062C0.28125 1.83854 0.260417 1.78385 0.25 1.72656C0.239583 1.66927 0.234375 1.60417 0.234375 1.53125C0.234375 1.33333 0.296875 1.17188 0.421875 1.04688C0.546875 0.921875 0.708333 0.859375 0.90625 0.859375H15.1719C15.3698 0.859375 15.5312 0.921875 15.6562 1.04688C15.7812 1.17188 15.8438 1.33333 15.8438 1.53125C15.8438 1.72917 15.7812 1.89323 15.6562 2.02344C15.5312 2.15365 15.3698 2.21875 15.1719 2.21875H0.90625C0.708333 2.21875 0.546875 2.15625 0.421875 2.03125ZM15.6562 6.48438C15.7812 6.60938 15.8438 6.77083 15.8438 6.96875C15.8438 7.16667 15.7812 7.32812 15.6562 7.45312C15.5312 7.57812 15.3698 7.64062 15.1719 7.64062H0.90625C0.708333 7.64062 0.546875 7.57812 0.421875 7.45312C0.401042 7.43229 0.380208 7.40625 0.359375 7.375C0.338542 7.34375 0.320312 7.3125 0.304688 7.28125C0.289062 7.25 0.276042 7.21875 0.265625 7.1875C0.255208 7.15625 0.247396 7.1224 0.242188 7.08594C0.236979 7.04948 0.234375 7.01042 0.234375 6.96875C0.234375 6.77083 0.296875 6.60938 0.421875 6.48438C0.546875 6.35938 0.708333 6.29688 0.90625 6.29688H15.1719C15.3698 6.29688 15.5312 6.35938 15.6562 6.48438ZM15.6562 11.9062C15.7812 12.0312 15.8438 12.1927 15.8438 12.3906C15.8438 12.5885 15.7812 12.7526 15.6562 12.8828C15.5312 13.013 15.3698 13.0781 15.1719 13.0781H0.90625C0.708333 13.0781 0.546875 13.0156 0.421875 12.8906C0.401042 12.8698 0.382812 12.8464 0.367188 12.8203L0.320312 12.7422L0.28125 12.6641L0.25 12.5781L0.234375 12.4922V12.3906C0.234375 12.1927 0.296875 12.0312 0.421875 11.9062C0.546875 11.7812 0.708333 11.7188 0.90625 11.7188H15.1719C15.3594 11.7188 15.5208 11.7812 15.6562 11.9062Z" fill="black"/>
</svg>
