<svg id="Layer_1_94yusSH0" data-name="Layer 1   94yusSH0" xmlns="http://www.w3.org/2000/svg" viewBox="0 0 235.96 237.95"><defs><style>.cls-1{fill:#ff8859;}</style></defs><path class="cls-1" d="M20.57,217.19c-1.45,3.83-3.09,6.37-4.73,7.83a10.43,10.43,0,0,1-6.74,2.37H4.92V221.2H8.38a4.46,4.46,0,0,0,2.36-.55c.55-.18.91-.91,1.46-1.64a1.81,1.81,0,0,1,.18-.54c0-.19.18-.19.18-.55L0,187.33H8.19l4.74,12.93c.73,1.82,1.09,3.46,1.64,4.92A28.83,28.83,0,0,0,16,209h.18l3.1-9.1a4.75,4.75,0,0,1,.55-1.46c.36-.73.54-1.46.91-2.37.18-.91.72-1.82.91-2.73s.72-1.82.91-2.73a15.58,15.58,0,0,1,.72-2.19c.19-.72.19-.91.55-1.09h7.83C31.5,187,20.57,217.19,20.57,217.19Zm35.69-.54a10.88,10.88,0,0,1-2.55,7.46c-1.64,1.82-4.19,2.73-7.46,2.73a24.72,24.72,0,0,1-3.46-.18,12.72,12.72,0,0,1-4.19-1.46V238H31.5V197.89h6.73l.55,2.55a33.69,33.69,0,0,1,4.55-2.18,10.2,10.2,0,0,1,10.56,1.82c1.64,1.64,2.37,4.18,2.37,8v8.56Zm-7.47-7.83c0-1.64-.18-2.73-.91-3.28a3.37,3.37,0,0,0-2.54-.91,5.65,5.65,0,0,0-1.64.18,5.47,5.47,0,0,0-1.64.55c-.73.18-1.09.54-1.82.73-.55.18-1.1.72-1.64.91v11.28a11.63,11.63,0,0,0,3.28,1.1,13.93,13.93,0,0,0,2.73.18,3.34,3.34,0,0,0,2.73-.91,4.63,4.63,0,0,0,1.09-3.46l.36-6.37ZM69,201.17l1.46-.73a16.7,16.7,0,0,1,1.64-.73,5.84,5.84,0,0,0,1.64-.54h1.45a11.94,11.94,0,0,1,4.56.73,12.16,12.16,0,0,1,3.46,1.82A21.62,21.62,0,0,1,85.57,205a13.9,13.9,0,0,1,.73,4.92v5.83a10,10,0,0,1-.91,4.73,8.28,8.28,0,0,1-2.73,3.28,14.17,14.17,0,0,1-4,2.18,13.81,13.81,0,0,1-4.91.73,15.63,15.63,0,0,1-5.1-.73,10.86,10.86,0,0,1-4-2.18,13.41,13.41,0,0,1-2.54-3.28,9.56,9.56,0,0,1-.91-4.73V209a55.57,55.57,0,0,1,.18-5.65c.18-1.63.54-3.09.73-4.55A9.73,9.73,0,0,1,63.54,195a22.45,22.45,0,0,1,2.19-3.1,10,10,0,0,1,2.18-1.82c.73-.54,1.64-.91,2.55-1.45a8.7,8.7,0,0,1,2.73-1.1,18.27,18.27,0,0,1,2.73-1.09,13,13,0,0,1,3.1-1.09,11.23,11.23,0,0,0,3.09-1.46l2.37,5.83a9.17,9.17,0,0,0-1.82.73l-1.46.73c-.54.18-.91.54-1.45.54-.55.18-.91.55-1.46.55-1.09.54-2.37.91-3.28,1.45s-2.18.92-2.73,1.64a12.14,12.14,0,0,0-2.18,2.19A6.6,6.6,0,0,0,69,201.17ZM78.84,211a4.83,4.83,0,0,0-1.64-4,6.34,6.34,0,0,0-3.83-1.1,6,6,0,0,0-1.82.19,4.67,4.67,0,0,0-1.64.91,3.28,3.28,0,0,0-1.09,1.63,9.16,9.16,0,0,0-.54,2.37v4a5,5,0,0,0,.54,2.36,3.08,3.08,0,0,0,1.09,1.46,2.93,2.93,0,0,0,1.64.91,6.29,6.29,0,0,0,1.82.18,5.11,5.11,0,0,0,1.82-.18,4.74,4.74,0,0,0,1.64-.91,3.9,3.9,0,0,0,1.1-1.46,9,9,0,0,0,.54-2.36l.37-4Zm28.76,13.11a36,36,0,0,1-4.73,2.19,9.83,9.83,0,0,1-3.82.54,9.24,9.24,0,0,1-6.74-2.37,8.63,8.63,0,0,1-2.37-6.37,7.21,7.21,0,0,1,.91-4,8.49,8.49,0,0,1,2.55-2.55,10.76,10.76,0,0,1,3.28-1.46,23,23,0,0,1,3.46-.55h7.28v-1.09a4.86,4.86,0,0,0-1.09-3.09c-.73-.73-2.19-.91-4-.91a13.63,13.63,0,0,0-3.46.54,7.82,7.82,0,0,0-4.18,2.19l-3.28-5.46a14.22,14.22,0,0,1,6.19-3.1,21.62,21.62,0,0,1,5.64-.73c4,0,7.1.91,8.92,2.73s2.74,4.74,2.74,8.38v17.84h-6.56C108.15,227,107.6,224.11,107.6,224.11Zm0-9.1h-7.46a1.09,1.09,0,0,0-1.09.54,1.51,1.51,0,0,0-.91.91,3.87,3.87,0,0,0-.19,1.46,1.86,1.86,0,0,0,.91,1.82,3.55,3.55,0,0,0,2.55.73,7.84,7.84,0,0,0,3.46-.73,12.2,12.2,0,0,0,2.73-1.46V215Zm30.77,11.47V215H127.81v11.47h-7.28V198.07h7.28v10.75h10.56V198.07h7.29v28.41Zm30.77-16.94L164.23,217l-6.38,9.47h-6.37V198.07h7.28V215H159l4.18-6.38,7.1-10.56h6.56v28.41h-7.28V209.54Zm13.11,16.94V198.07h7.28v10.56h2.37a5.66,5.66,0,0,0,3.1-.72,5.94,5.94,0,0,0,2.18-3.1l2.55-6.74h7.83l-3.1,8.2a10.84,10.84,0,0,1-1.64,3.27,7.85,7.85,0,0,1-2.73,2.19,5.7,5.7,0,0,1,3.1,2.18,15.45,15.45,0,0,1,1.64,3.46l3.27,9.11h-8.19L197.54,219a7.64,7.64,0,0,0-.91-2.18c-.54-.55-.72-.91-1.09-1.09a4.18,4.18,0,0,0-1.64-.55h-4.55v11.47h-7.1Zm46.43-2.37a36.14,36.14,0,0,1-4.74,2.19,9.79,9.79,0,0,1-3.82.54,9.25,9.25,0,0,1-6.74-2.37A8.66,8.66,0,0,1,211,218.1a7.21,7.21,0,0,1,.91-4,6.78,6.78,0,0,1,2.55-2.55,10.71,10.71,0,0,1,3.27-1.46,23.25,23.25,0,0,1,3.46-.55h7.29v-1.09a4.81,4.81,0,0,0-1.1-3.09c-.72-.73-2.18-.91-4-.91a13.57,13.57,0,0,0-3.46.54,7.85,7.85,0,0,0-4.19,2.19l-3.28-5.46a14.33,14.33,0,0,1,6.19-3.1,21.74,21.74,0,0,1,5.65-.73c4,0,7.1.91,8.92,2.73S236,205.36,236,209v17.84h-6.55C229.41,227,228.68,224.11,228.68,224.11Zm0-9.1h-7.47a1.1,1.1,0,0,0-1.09.54,1.54,1.54,0,0,0-.91.91,4.07,4.07,0,0,0-.18,1.46,1.84,1.84,0,0,0,.91,1.82,3.55,3.55,0,0,0,2.55.73,7.84,7.84,0,0,0,3.46-.73c1.09-.55,2.18-.91,3.09-1.46V215ZM48.79,67H55v6.19H48.79Zm11.47-1.82H70.64V75.56H60.26ZM71.55,53.89h6.19v6.19H71.55ZM82.84,49.7H93.22V60.08H82.84ZM75.92,65.18H93V82.3H75.92ZM107.78,0H114V6.19h-6.2Zm-2.36,11.47H115.8V21.85H105.42Zm15.66,11.29h6V29h-6.19V22.76Zm15.65,15.66h6.19v6.19h-6.19Zm-49.52-.37H93.4v6.19H87.21Zm-.36,49.34H93v6.19H86.85Zm49.7.37h6.19V94h-6.19ZM121.08,34.05h10.37V44.42H121.08Zm-22.4-6.92H115.8V44.24H98.68Zm76.11,31.68H181V65h-6.19Zm-15.48-2.37h10.38V66.82H159.31Zm-7.1,15.48h6.19v6.19h-6.19Zm-15.66,0h10.38V82.3H136.55Zm.18-22.22h17.12V66.82H136.73ZM115.8,125.81H122V132H115.8ZM114,110h10.37v10.38H114Zm-11.29-6.92h6.19v6.19h-6.19ZM98.5,87.39h10.38V97.77H98.5Zm15.48.37h17.11v17.11H114ZM98.68,65.18V82.3h10.2v-4h-5.83V65.18m28,6.74H126.9v6.37H114v4h17.11"/><path class="cls-1" d="M131.09,49.7H98.68V60.08h4.19V53.89H108V72.83h13.65V53.89h5.1V66.64h4.19"/></svg>